<mxfile host="app.diagrams.net" agent="Mozilla/5.0 (Windows NT 10.0; Win64; x64) AppleWebKit/537.36 (KHTML, like Gecko) Chrome/133.0.0.0 Safari/537.36" version="26.0.14">
  <diagram name="Page-1" id="LWBwI8ScnncNo1WxZ8MY">
    <mxGraphModel dx="670" dy="296" grid="1" gridSize="10" guides="1" tooltips="1" connect="1" arrows="1" fold="1" page="1" pageScale="1" pageWidth="850" pageHeight="1100" math="0" shadow="0">
      <root>
        <mxCell id="0" />
        <mxCell id="1" parent="0" />
        <mxCell id="nWeCvu2n60bJMO3mKfKt-1" value="User" style="swimlane;whiteSpace=wrap;html=1;" parent="1" vertex="1">
          <mxGeometry x="30" y="520" width="490" height="1390" as="geometry">
            <mxRectangle x="140" y="520" width="140" height="30" as="alternateBounds" />
          </mxGeometry>
        </mxCell>
        <mxCell id="nWeCvu2n60bJMO3mKfKt-4" value="Start" style="ellipse;whiteSpace=wrap;html=1;" parent="nWeCvu2n60bJMO3mKfKt-1" vertex="1">
          <mxGeometry x="167.5" y="50" width="115" height="50" as="geometry" />
        </mxCell>
        <mxCell id="q5prHMVFRJjdFCk8cDmZ-4" style="edgeStyle=orthogonalEdgeStyle;rounded=0;orthogonalLoop=1;jettySize=auto;html=1;entryX=0.5;entryY=0;entryDx=0;entryDy=0;" parent="nWeCvu2n60bJMO3mKfKt-1" source="nWeCvu2n60bJMO3mKfKt-13" target="q5prHMVFRJjdFCk8cDmZ-3" edge="1">
          <mxGeometry relative="1" as="geometry" />
        </mxCell>
        <mxCell id="nWeCvu2n60bJMO3mKfKt-13" value="Halaman Katalog Produk" style="rounded=0;whiteSpace=wrap;html=1;" parent="nWeCvu2n60bJMO3mKfKt-1" vertex="1">
          <mxGeometry x="162.5" y="280" width="120" height="40" as="geometry" />
        </mxCell>
        <mxCell id="nWeCvu2n60bJMO3mKfKt-20" value="Halaman Pelanggan" style="rounded=0;whiteSpace=wrap;html=1;" parent="nWeCvu2n60bJMO3mKfKt-1" vertex="1">
          <mxGeometry x="90" y="1080" width="125" height="40" as="geometry" />
        </mxCell>
        <mxCell id="nWeCvu2n60bJMO3mKfKt-5" value="Login" style="rounded=0;whiteSpace=wrap;html=1;" parent="nWeCvu2n60bJMO3mKfKt-1" vertex="1">
          <mxGeometry x="162.5" y="175" width="125" height="40" as="geometry" />
        </mxCell>
        <mxCell id="nWeCvu2n60bJMO3mKfKt-6" style="edgeStyle=orthogonalEdgeStyle;rounded=0;orthogonalLoop=1;jettySize=auto;html=1;" parent="nWeCvu2n60bJMO3mKfKt-1" source="nWeCvu2n60bJMO3mKfKt-4" target="nWeCvu2n60bJMO3mKfKt-5" edge="1">
          <mxGeometry relative="1" as="geometry" />
        </mxCell>
        <mxCell id="nWeCvu2n60bJMO3mKfKt-135" value="Tambah Data Pelanggan" style="rounded=0;whiteSpace=wrap;html=1;" parent="nWeCvu2n60bJMO3mKfKt-1" vertex="1">
          <mxGeometry x="320" y="1095" width="117" height="30" as="geometry" />
        </mxCell>
        <mxCell id="nWeCvu2n60bJMO3mKfKt-164" value="End" style="ellipse;whiteSpace=wrap;html=1;" parent="nWeCvu2n60bJMO3mKfKt-1" vertex="1">
          <mxGeometry x="165" y="1320" width="115" height="50" as="geometry" />
        </mxCell>
        <mxCell id="q5prHMVFRJjdFCk8cDmZ-1" value="melakukan pencarian produk berdasarkan nama atau filter" style="rounded=0;whiteSpace=wrap;html=1;" parent="nWeCvu2n60bJMO3mKfKt-1" vertex="1">
          <mxGeometry x="314" y="340" width="123" height="50" as="geometry" />
        </mxCell>
        <mxCell id="q5prHMVFRJjdFCk8cDmZ-5" style="edgeStyle=orthogonalEdgeStyle;rounded=0;orthogonalLoop=1;jettySize=auto;html=1;entryX=0;entryY=0.5;entryDx=0;entryDy=0;" parent="nWeCvu2n60bJMO3mKfKt-1" source="q5prHMVFRJjdFCk8cDmZ-3" target="q5prHMVFRJjdFCk8cDmZ-1" edge="1">
          <mxGeometry relative="1" as="geometry" />
        </mxCell>
        <mxCell id="q5prHMVFRJjdFCk8cDmZ-3" value="" style="rhombus;whiteSpace=wrap;html=1;" parent="nWeCvu2n60bJMO3mKfKt-1" vertex="1">
          <mxGeometry x="202.5" y="345" width="40" height="40" as="geometry" />
        </mxCell>
        <mxCell id="q5prHMVFRJjdFCk8cDmZ-15" style="edgeStyle=orthogonalEdgeStyle;rounded=0;orthogonalLoop=1;jettySize=auto;html=1;" parent="nWeCvu2n60bJMO3mKfKt-1" source="q5prHMVFRJjdFCk8cDmZ-12" target="q5prHMVFRJjdFCk8cDmZ-1" edge="1">
          <mxGeometry relative="1" as="geometry" />
        </mxCell>
        <mxCell id="q5prHMVFRJjdFCk8cDmZ-12" value="katalog dengan pesan &quot;produk tidak tersedia&quot;" style="rounded=0;whiteSpace=wrap;html=1;" parent="nWeCvu2n60bJMO3mKfKt-1" vertex="1">
          <mxGeometry x="310.5" y="420" width="130" height="40" as="geometry" />
        </mxCell>
        <mxCell id="q5prHMVFRJjdFCk8cDmZ-16" value="melakukan pencarian produk berdasarkan nama atau filter" style="rounded=0;whiteSpace=wrap;html=1;" parent="nWeCvu2n60bJMO3mKfKt-1" vertex="1">
          <mxGeometry x="310.5" y="520" width="123" height="50" as="geometry" />
        </mxCell>
        <mxCell id="nWeCvu2n60bJMO3mKfKt-3" value="Sistem" style="swimlane;whiteSpace=wrap;html=1;" parent="1" vertex="1">
          <mxGeometry x="520" y="520" width="340" height="1390" as="geometry" />
        </mxCell>
        <mxCell id="nWeCvu2n60bJMO3mKfKt-7" value="Validasi&amp;nbsp;&lt;div&gt;No Hp dan password&lt;/div&gt;" style="rhombus;whiteSpace=wrap;html=1;" parent="nWeCvu2n60bJMO3mKfKt-3" vertex="1">
          <mxGeometry x="150" y="130" width="90" height="130" as="geometry" />
        </mxCell>
        <mxCell id="nWeCvu2n60bJMO3mKfKt-125" style="edgeStyle=orthogonalEdgeStyle;rounded=0;orthogonalLoop=1;jettySize=auto;html=1;entryX=0.5;entryY=1;entryDx=0;entryDy=0;" parent="nWeCvu2n60bJMO3mKfKt-3" edge="1">
          <mxGeometry relative="1" as="geometry">
            <Array as="points">
              <mxPoint x="-111" y="1030" />
            </Array>
            <mxPoint x="248.75" y="1030" as="sourcePoint" />
            <mxPoint x="-111.5" y="1015" as="targetPoint" />
          </mxGeometry>
        </mxCell>
        <mxCell id="nWeCvu2n60bJMO3mKfKt-126" value="Tidak" style="edgeLabel;html=1;align=center;verticalAlign=middle;resizable=0;points=[];" parent="nWeCvu2n60bJMO3mKfKt-125" vertex="1" connectable="0">
          <mxGeometry x="-0.2303" y="1" relative="1" as="geometry">
            <mxPoint as="offset" />
          </mxGeometry>
        </mxCell>
        <mxCell id="nWeCvu2n60bJMO3mKfKt-147" style="edgeStyle=orthogonalEdgeStyle;rounded=0;orthogonalLoop=1;jettySize=auto;html=1;entryX=0;entryY=0.5;entryDx=0;entryDy=0;" parent="nWeCvu2n60bJMO3mKfKt-3" source="nWeCvu2n60bJMO3mKfKt-136" target="nWeCvu2n60bJMO3mKfKt-139" edge="1">
          <mxGeometry relative="1" as="geometry">
            <Array as="points">
              <mxPoint x="-190" y="1100" />
              <mxPoint x="-190" y="1170" />
            </Array>
          </mxGeometry>
        </mxCell>
        <mxCell id="nWeCvu2n60bJMO3mKfKt-148" style="edgeStyle=orthogonalEdgeStyle;rounded=0;orthogonalLoop=1;jettySize=auto;html=1;entryX=0;entryY=0.5;entryDx=0;entryDy=0;" parent="nWeCvu2n60bJMO3mKfKt-3" source="nWeCvu2n60bJMO3mKfKt-136" target="nWeCvu2n60bJMO3mKfKt-137" edge="1">
          <mxGeometry relative="1" as="geometry">
            <Array as="points">
              <mxPoint x="-190" y="1100" />
              <mxPoint x="-190" y="1240" />
            </Array>
          </mxGeometry>
        </mxCell>
        <mxCell id="nWeCvu2n60bJMO3mKfKt-136" value="" style="rhombus;whiteSpace=wrap;html=1;" parent="nWeCvu2n60bJMO3mKfKt-3" vertex="1">
          <mxGeometry x="-242.5" y="1080" width="40" height="40" as="geometry" />
        </mxCell>
        <mxCell id="nWeCvu2n60bJMO3mKfKt-156" style="edgeStyle=orthogonalEdgeStyle;rounded=0;orthogonalLoop=1;jettySize=auto;html=1;" parent="nWeCvu2n60bJMO3mKfKt-3" source="nWeCvu2n60bJMO3mKfKt-137" target="nWeCvu2n60bJMO3mKfKt-141" edge="1">
          <mxGeometry relative="1" as="geometry" />
        </mxCell>
        <mxCell id="nWeCvu2n60bJMO3mKfKt-137" value="Edit Data Pelanggan" style="rounded=0;whiteSpace=wrap;html=1;" parent="nWeCvu2n60bJMO3mKfKt-3" vertex="1">
          <mxGeometry x="-170" y="1225" width="117" height="30" as="geometry" />
        </mxCell>
        <mxCell id="nWeCvu2n60bJMO3mKfKt-138" value="&lt;font style=&quot;font-size: 10px;&quot;&gt;Validasi :&amp;nbsp;&lt;/font&gt;&lt;div&gt;&lt;span style=&quot;font-size: 10px; background-color: transparent; color: light-dark(rgb(0, 0, 0), rgb(255, 255, 255));&quot;&gt;semua&amp;nbsp;&lt;/span&gt;&lt;span style=&quot;font-size: 10px; background-color: transparent; color: light-dark(rgb(0, 0, 0), rgb(255, 255, 255));&quot;&gt;kolom&lt;/span&gt;&lt;/div&gt;&lt;div&gt;&lt;span style=&quot;font-size: 10px; background-color: transparent; color: light-dark(rgb(0, 0, 0), rgb(255, 255, 255));&quot;&gt;terisi&lt;/span&gt;&lt;/div&gt;" style="rhombus;whiteSpace=wrap;html=1;" parent="nWeCvu2n60bJMO3mKfKt-3" vertex="1">
          <mxGeometry x="50" y="1070" width="90" height="80" as="geometry" />
        </mxCell>
        <mxCell id="nWeCvu2n60bJMO3mKfKt-153" style="edgeStyle=orthogonalEdgeStyle;rounded=0;orthogonalLoop=1;jettySize=auto;html=1;" parent="nWeCvu2n60bJMO3mKfKt-3" source="nWeCvu2n60bJMO3mKfKt-139" target="nWeCvu2n60bJMO3mKfKt-140" edge="1">
          <mxGeometry relative="1" as="geometry" />
        </mxCell>
        <mxCell id="nWeCvu2n60bJMO3mKfKt-139" value="Hapus Data Pelanggan" style="rounded=0;whiteSpace=wrap;html=1;" parent="nWeCvu2n60bJMO3mKfKt-3" vertex="1">
          <mxGeometry x="-170" y="1155" width="117" height="30" as="geometry" />
        </mxCell>
        <mxCell id="nWeCvu2n60bJMO3mKfKt-154" style="edgeStyle=orthogonalEdgeStyle;rounded=0;orthogonalLoop=1;jettySize=auto;html=1;entryX=0.5;entryY=1;entryDx=0;entryDy=0;" parent="nWeCvu2n60bJMO3mKfKt-3" source="nWeCvu2n60bJMO3mKfKt-140" target="nWeCvu2n60bJMO3mKfKt-139" edge="1">
          <mxGeometry relative="1" as="geometry">
            <Array as="points">
              <mxPoint x="-111" y="1200" />
            </Array>
          </mxGeometry>
        </mxCell>
        <mxCell id="nWeCvu2n60bJMO3mKfKt-155" value="Tidak" style="edgeLabel;html=1;align=center;verticalAlign=middle;resizable=0;points=[];" parent="nWeCvu2n60bJMO3mKfKt-154" vertex="1" connectable="0">
          <mxGeometry x="-0.4229" y="3" relative="1" as="geometry">
            <mxPoint as="offset" />
          </mxGeometry>
        </mxCell>
        <mxCell id="nWeCvu2n60bJMO3mKfKt-140" value="&lt;font style=&quot;font-size: 10px;&quot;&gt;Validasi :&amp;nbsp;&lt;/font&gt;&lt;div&gt;&lt;span style=&quot;font-size: 10px; background-color: transparent; color: light-dark(rgb(0, 0, 0), rgb(255, 255, 255));&quot;&gt;semua&amp;nbsp;&lt;/span&gt;&lt;span style=&quot;font-size: 10px; background-color: transparent; color: light-dark(rgb(0, 0, 0), rgb(255, 255, 255));&quot;&gt;kolom&lt;/span&gt;&lt;/div&gt;&lt;div&gt;&lt;span style=&quot;font-size: 10px; background-color: transparent; color: light-dark(rgb(0, 0, 0), rgb(255, 255, 255));&quot;&gt;terisi&lt;/span&gt;&lt;/div&gt;" style="rhombus;whiteSpace=wrap;html=1;" parent="nWeCvu2n60bJMO3mKfKt-3" vertex="1">
          <mxGeometry x="125" y="1130" width="90" height="80" as="geometry" />
        </mxCell>
        <mxCell id="nWeCvu2n60bJMO3mKfKt-158" style="edgeStyle=orthogonalEdgeStyle;rounded=0;orthogonalLoop=1;jettySize=auto;html=1;entryX=0.5;entryY=1;entryDx=0;entryDy=0;" parent="nWeCvu2n60bJMO3mKfKt-3" source="nWeCvu2n60bJMO3mKfKt-141" target="nWeCvu2n60bJMO3mKfKt-137" edge="1">
          <mxGeometry relative="1" as="geometry">
            <Array as="points">
              <mxPoint x="-111" y="1270" />
            </Array>
          </mxGeometry>
        </mxCell>
        <mxCell id="nWeCvu2n60bJMO3mKfKt-159" value="Tidak" style="edgeLabel;html=1;align=center;verticalAlign=middle;resizable=0;points=[];" parent="nWeCvu2n60bJMO3mKfKt-158" vertex="1" connectable="0">
          <mxGeometry x="-0.4663" y="2" relative="1" as="geometry">
            <mxPoint as="offset" />
          </mxGeometry>
        </mxCell>
        <mxCell id="nWeCvu2n60bJMO3mKfKt-141" value="&lt;font style=&quot;font-size: 10px;&quot;&gt;Validasi :&amp;nbsp;&lt;/font&gt;&lt;div&gt;&lt;span style=&quot;font-size: 10px; background-color: transparent; color: light-dark(rgb(0, 0, 0), rgb(255, 255, 255));&quot;&gt;semua&amp;nbsp;&lt;/span&gt;&lt;span style=&quot;font-size: 10px; background-color: transparent; color: light-dark(rgb(0, 0, 0), rgb(255, 255, 255));&quot;&gt;kolom&lt;/span&gt;&lt;/div&gt;&lt;div&gt;&lt;span style=&quot;font-size: 10px; background-color: transparent; color: light-dark(rgb(0, 0, 0), rgb(255, 255, 255));&quot;&gt;terisi&lt;/span&gt;&lt;/div&gt;" style="rhombus;whiteSpace=wrap;html=1;" parent="nWeCvu2n60bJMO3mKfKt-3" vertex="1">
          <mxGeometry x="215" y="1200" width="90" height="80" as="geometry" />
        </mxCell>
        <mxCell id="q5prHMVFRJjdFCk8cDmZ-7" value="&lt;font style=&quot;font-size: 10px;&quot;&gt;Validasi :&amp;nbsp;&lt;/font&gt;&lt;div&gt;&lt;span style=&quot;font-size: 10px;&quot;&gt;produk yang di cari&amp;nbsp;&lt;/span&gt;&lt;/div&gt;&lt;div&gt;&lt;span style=&quot;font-size: 10px;&quot;&gt;tersedia&amp;nbsp;&lt;/span&gt;&lt;/div&gt;&lt;div&gt;&lt;span style=&quot;font-size: 10px;&quot;&gt;atau tidak&lt;/span&gt;&lt;/div&gt;" style="rhombus;whiteSpace=wrap;html=1;" parent="nWeCvu2n60bJMO3mKfKt-3" vertex="1">
          <mxGeometry x="60" y="317.5" width="110" height="95" as="geometry" />
        </mxCell>
        <mxCell id="nWeCvu2n60bJMO3mKfKt-14" style="edgeStyle=orthogonalEdgeStyle;rounded=0;orthogonalLoop=1;jettySize=auto;html=1;entryX=0.5;entryY=0;entryDx=0;entryDy=0;" parent="1" source="nWeCvu2n60bJMO3mKfKt-7" target="nWeCvu2n60bJMO3mKfKt-13" edge="1">
          <mxGeometry relative="1" as="geometry">
            <Array as="points">
              <mxPoint x="253" y="770" />
            </Array>
          </mxGeometry>
        </mxCell>
        <mxCell id="nWeCvu2n60bJMO3mKfKt-15" value="Ya" style="edgeLabel;html=1;align=center;verticalAlign=middle;resizable=0;points=[];" parent="nWeCvu2n60bJMO3mKfKt-14" vertex="1" connectable="0">
          <mxGeometry x="-0.3207" y="2" relative="1" as="geometry">
            <mxPoint y="-2" as="offset" />
          </mxGeometry>
        </mxCell>
        <mxCell id="nWeCvu2n60bJMO3mKfKt-8" style="edgeStyle=orthogonalEdgeStyle;rounded=0;orthogonalLoop=1;jettySize=auto;html=1;entryX=0;entryY=0.5;entryDx=0;entryDy=0;" parent="1" source="nWeCvu2n60bJMO3mKfKt-5" target="nWeCvu2n60bJMO3mKfKt-7" edge="1">
          <mxGeometry relative="1" as="geometry" />
        </mxCell>
        <mxCell id="nWeCvu2n60bJMO3mKfKt-9" style="edgeStyle=orthogonalEdgeStyle;rounded=0;orthogonalLoop=1;jettySize=auto;html=1;entryX=1;entryY=0.25;entryDx=0;entryDy=0;exitX=0.5;exitY=0;exitDx=0;exitDy=0;" parent="1" source="nWeCvu2n60bJMO3mKfKt-7" target="nWeCvu2n60bJMO3mKfKt-5" edge="1">
          <mxGeometry relative="1" as="geometry">
            <Array as="points">
              <mxPoint x="715" y="640" />
              <mxPoint x="560" y="640" />
              <mxPoint x="560" y="705" />
            </Array>
          </mxGeometry>
        </mxCell>
        <mxCell id="nWeCvu2n60bJMO3mKfKt-10" value="Tidak" style="edgeLabel;html=1;align=center;verticalAlign=middle;resizable=0;points=[];" parent="nWeCvu2n60bJMO3mKfKt-9" vertex="1" connectable="0">
          <mxGeometry x="-0.6208" y="4" relative="1" as="geometry">
            <mxPoint y="-4" as="offset" />
          </mxGeometry>
        </mxCell>
        <mxCell id="nWeCvu2n60bJMO3mKfKt-142" style="edgeStyle=orthogonalEdgeStyle;rounded=0;orthogonalLoop=1;jettySize=auto;html=1;" parent="1" source="nWeCvu2n60bJMO3mKfKt-20" target="nWeCvu2n60bJMO3mKfKt-136" edge="1">
          <mxGeometry relative="1" as="geometry" />
        </mxCell>
        <mxCell id="nWeCvu2n60bJMO3mKfKt-150" style="edgeStyle=orthogonalEdgeStyle;rounded=0;orthogonalLoop=1;jettySize=auto;html=1;entryX=0.5;entryY=0;entryDx=0;entryDy=0;" parent="1" source="nWeCvu2n60bJMO3mKfKt-138" target="nWeCvu2n60bJMO3mKfKt-20" edge="1">
          <mxGeometry relative="1" as="geometry">
            <Array as="points">
              <mxPoint x="830" y="1620" />
              <mxPoint x="830" y="1580" />
              <mxPoint x="182" y="1580" />
            </Array>
          </mxGeometry>
        </mxCell>
        <mxCell id="nWeCvu2n60bJMO3mKfKt-143" style="edgeStyle=orthogonalEdgeStyle;rounded=0;orthogonalLoop=1;jettySize=auto;html=1;entryX=0;entryY=0.5;entryDx=0;entryDy=0;" parent="1" source="nWeCvu2n60bJMO3mKfKt-136" target="nWeCvu2n60bJMO3mKfKt-135" edge="1">
          <mxGeometry relative="1" as="geometry">
            <Array as="points">
              <mxPoint x="330" y="1620" />
              <mxPoint x="330" y="1630" />
            </Array>
          </mxGeometry>
        </mxCell>
        <mxCell id="nWeCvu2n60bJMO3mKfKt-149" style="edgeStyle=orthogonalEdgeStyle;rounded=0;orthogonalLoop=1;jettySize=auto;html=1;entryX=0;entryY=0.5;entryDx=0;entryDy=0;" parent="1" source="nWeCvu2n60bJMO3mKfKt-135" target="nWeCvu2n60bJMO3mKfKt-138" edge="1">
          <mxGeometry relative="1" as="geometry">
            <Array as="points">
              <mxPoint x="490" y="1630" />
              <mxPoint x="490" y="1630" />
            </Array>
          </mxGeometry>
        </mxCell>
        <mxCell id="nWeCvu2n60bJMO3mKfKt-151" style="edgeStyle=orthogonalEdgeStyle;rounded=0;orthogonalLoop=1;jettySize=auto;html=1;entryX=0.5;entryY=1;entryDx=0;entryDy=0;" parent="1" source="nWeCvu2n60bJMO3mKfKt-138" target="nWeCvu2n60bJMO3mKfKt-135" edge="1">
          <mxGeometry relative="1" as="geometry">
            <Array as="points">
              <mxPoint x="409" y="1660" />
            </Array>
          </mxGeometry>
        </mxCell>
        <mxCell id="nWeCvu2n60bJMO3mKfKt-152" value="Tidak" style="edgeLabel;html=1;align=center;verticalAlign=middle;resizable=0;points=[];" parent="nWeCvu2n60bJMO3mKfKt-151" vertex="1" connectable="0">
          <mxGeometry x="-0.4424" y="2" relative="1" as="geometry">
            <mxPoint as="offset" />
          </mxGeometry>
        </mxCell>
        <mxCell id="nWeCvu2n60bJMO3mKfKt-157" style="edgeStyle=orthogonalEdgeStyle;rounded=0;orthogonalLoop=1;jettySize=auto;html=1;entryX=0.5;entryY=0;entryDx=0;entryDy=0;" parent="1" source="nWeCvu2n60bJMO3mKfKt-140" target="nWeCvu2n60bJMO3mKfKt-20" edge="1">
          <mxGeometry relative="1" as="geometry">
            <Array as="points">
              <mxPoint x="830" y="1690" />
              <mxPoint x="830" y="1580" />
              <mxPoint x="183" y="1580" />
            </Array>
          </mxGeometry>
        </mxCell>
        <mxCell id="nWeCvu2n60bJMO3mKfKt-160" style="edgeStyle=orthogonalEdgeStyle;rounded=0;orthogonalLoop=1;jettySize=auto;html=1;entryX=0.5;entryY=0;entryDx=0;entryDy=0;" parent="1" source="nWeCvu2n60bJMO3mKfKt-141" target="nWeCvu2n60bJMO3mKfKt-20" edge="1">
          <mxGeometry relative="1" as="geometry">
            <Array as="points">
              <mxPoint x="830" y="1760" />
              <mxPoint x="830" y="1580" />
              <mxPoint x="183" y="1580" />
            </Array>
          </mxGeometry>
        </mxCell>
        <mxCell id="nWeCvu2n60bJMO3mKfKt-161" value="Ya" style="edgeLabel;html=1;align=center;verticalAlign=middle;resizable=0;points=[];" parent="nWeCvu2n60bJMO3mKfKt-160" vertex="1" connectable="0">
          <mxGeometry x="-0.925" y="1" relative="1" as="geometry">
            <mxPoint as="offset" />
          </mxGeometry>
        </mxCell>
        <mxCell id="nWeCvu2n60bJMO3mKfKt-162" value="Ya" style="edgeLabel;html=1;align=center;verticalAlign=middle;resizable=0;points=[];" parent="nWeCvu2n60bJMO3mKfKt-160" vertex="1" connectable="0">
          <mxGeometry x="-0.7618" y="1" relative="1" as="geometry">
            <mxPoint as="offset" />
          </mxGeometry>
        </mxCell>
        <mxCell id="nWeCvu2n60bJMO3mKfKt-163" value="Ya" style="edgeLabel;html=1;align=center;verticalAlign=middle;resizable=0;points=[];" parent="nWeCvu2n60bJMO3mKfKt-160" vertex="1" connectable="0">
          <mxGeometry x="-0.6252" y="-1" relative="1" as="geometry">
            <mxPoint as="offset" />
          </mxGeometry>
        </mxCell>
        <mxCell id="q5prHMVFRJjdFCk8cDmZ-8" style="edgeStyle=orthogonalEdgeStyle;rounded=0;orthogonalLoop=1;jettySize=auto;html=1;" parent="1" source="q5prHMVFRJjdFCk8cDmZ-1" target="q5prHMVFRJjdFCk8cDmZ-7" edge="1">
          <mxGeometry relative="1" as="geometry" />
        </mxCell>
        <mxCell id="q5prHMVFRJjdFCk8cDmZ-9" style="edgeStyle=orthogonalEdgeStyle;rounded=0;orthogonalLoop=1;jettySize=auto;html=1;entryX=1;entryY=0.5;entryDx=0;entryDy=0;" parent="1" source="q5prHMVFRJjdFCk8cDmZ-7" target="nWeCvu2n60bJMO3mKfKt-13" edge="1">
          <mxGeometry relative="1" as="geometry">
            <Array as="points">
              <mxPoint x="720" y="885" />
              <mxPoint x="720" y="820" />
            </Array>
          </mxGeometry>
        </mxCell>
        <mxCell id="q5prHMVFRJjdFCk8cDmZ-10" value="Ya" style="edgeLabel;html=1;align=center;verticalAlign=middle;resizable=0;points=[];" parent="q5prHMVFRJjdFCk8cDmZ-9" vertex="1" connectable="0">
          <mxGeometry x="-0.7446" y="-2" relative="1" as="geometry">
            <mxPoint as="offset" />
          </mxGeometry>
        </mxCell>
        <mxCell id="q5prHMVFRJjdFCk8cDmZ-13" style="edgeStyle=orthogonalEdgeStyle;rounded=0;orthogonalLoop=1;jettySize=auto;html=1;entryX=1;entryY=0.5;entryDx=0;entryDy=0;" parent="1" source="q5prHMVFRJjdFCk8cDmZ-7" target="q5prHMVFRJjdFCk8cDmZ-12" edge="1">
          <mxGeometry relative="1" as="geometry">
            <Array as="points">
              <mxPoint x="720" y="885" />
              <mxPoint x="720" y="960" />
            </Array>
          </mxGeometry>
        </mxCell>
        <mxCell id="q5prHMVFRJjdFCk8cDmZ-14" value="Tidak" style="edgeLabel;html=1;align=center;verticalAlign=middle;resizable=0;points=[];" parent="q5prHMVFRJjdFCk8cDmZ-13" vertex="1" connectable="0">
          <mxGeometry x="-0.5955" y="3" relative="1" as="geometry">
            <mxPoint as="offset" />
          </mxGeometry>
        </mxCell>
      </root>
    </mxGraphModel>
  </diagram>
</mxfile>
